<svg version="1.2" xmlns="http://www.w3.org/2000/svg" viewBox="0 0 330 150" width="330" height="150">
	<title>logo-svg</title>
	<style>
		.s0 { fill: #ffffff } 
	</style>
	<g id="Layer">
		<path id="Layer" fill-rule="evenodd" class="s0" d="m47.8 35h49.6l-10.8 11h21.8l-12.8 13h24.8l-6.2 6.3-6.2 6.2 6.2 6.3 6.3 6.2h-24.9l12.8 13h-21.8l10.8 11h-50.8l10.8-11h-20.8l12.8-13h-24.9l6.3-6.2 6.2-6.3-6.2-6.2-6.2-6.3h24.8l-12.8-13h20.6zm147.2 25.6c0 7.1-2.8 10.4-9 10.4-6.1 0-9-3.3-9-10.3 0-6.1 2.4-10.3 6.3-11 7.2-1.3 11.7 2.9 11.7 10.9zm-9.2-6.5c-2.3 0.6-2.8 1.7-2.8 6.5 0 5.3 0.1 5.4 2.9 5.4 3.2 0 4.1-1.4 4.1-6.5 0-2.4-0.6-3.8-1.9-4.5-1.1-0.5-2.1-1-2.3-0.9zm110.4-2.4c3.9 3.4 3 16-1.2 18.3-1 0.6-3.7 1-5.9 1-6.1 0-8.1-2.5-8.1-9.9 0-7.6 0.6-9 4.4-10.7 3.5-1.5 8.2-0.9 10.8 1.3zm-10 9.5c0.3 4 0.5 4.3 3.3 4.3 2.8 0 3-0.3 3.3-4.3 0.2-2.4-0.2-5-0.9-5.8-2.9-3.6-6.2-0.3-5.7 5.8zm-142.2-11.2h2.5c2.5 0 2.5 0.1 2.5 7.9v8l4.3 0.3c3.4 0.2 4.2 0.7 4.2 2.3 0 1.8-0.8 2-6.7 2.3l-6.8 0.3zm16 0h7.6c7.2 0 7.5 0.1 7.2 2.2-0.2 1.9-1 2.4-4.5 2.6-5.5 0.4-6.1 3.2-0.8 3.2 3.1 0 3.5 0.3 3.5 2.5 0 2.2-0.4 2.5-3.5 2.5-2.4 0-3.5 0.5-3.5 1.5 0 1.1 1.2 1.5 4.5 1.5 4.1 0 4.5 0.2 4.5 2.5 0 2.4-0.2 2.5-7.5 2.5h-7.5zm37.9 0h2.9c2.4 0 3.4 0.9 6.1 5.1 1.7 2.8 3.1 5.4 3.1 5.9 0 0.5 0.3 1.1 0.8 1.3 0.4 0.3 0.5-2.4 0.4-5.9-0.4-6.3-0.3-6.4 2.2-6.4h2.7l-0.3 10.2c-0.3 9.8-0.4 10.3-2.5 10.6-1.8 0.3-3.1-0.9-6.3-5.9l-4-6.2v6.2c0 5.9-0.1 6.2-2.2 5.9-2.2-0.3-2.3-0.8-2.6-10.6zm30.2 0c2.5 0 2.9 0.7 6.3 9.8 2 5.4 3.6 10.2 3.6 10.5 0 1.7-5 0.5-6-1.3-0.7-1.3-2.1-2-4-2-1.9 0-3.3 0.7-4 2-1.2 2.2-6.6 2.9-5.7 0.7 0.2-0.6 1.9-5.4 3.8-10.5 3.1-8.5 3.5-9.2 6-9.2zm1 8c-0.7-2.7-1.5-2.1-2.5 2.2-0.5 2.4-0.3 2.8 1.4 2.8 1.1 0 2-0.6 1.9-1.3-0.1-0.6-0.4-2.3-0.8-3.7zm11.9-8h6.2c7.5 0 9.8 1.6 9.8 7 0 2.1-0.7 4.3-1.5 5-1.3 1.1-1.3 1.6 0.5 4.5 2.6 4.2 2.6 4.5-1.1 4.5-2.5 0-3.2-0.6-4.5-3.5-0.8-1.9-2.1-3.5-2.9-3.5-1 0-1.5 1.1-1.5 3.5 0 3.1-0.3 3.5-2.5 3.5h-2.5zm7.8 5.2c-2.3-0.3-2.8 0.1-2.8 1.8 0 1.7 0.5 2.1 2.8 1.8 1.6-0.2 2.7-0.9 2.7-1.8 0-0.9-1.1-1.6-2.7-1.8zm12.2-5.2h6c7.9 0 11 2.6 11 9.4 0 8.6-3.1 11.6-12 11.6h-5zm7.8 5.2c-2.8-0.3-2.8-0.3-2.8 5.3 0 5.6 0 5.6 2.8 5.3 2.5-0.3 2.7-0.6 2.7-5.3 0-4.7-0.2-5-2.7-5.3zm-82.8 35.4c0 7.1-2.8 10.4-9 10.4-6.1 0-9-3.3-9-10.3 0-6.1 2.4-10.3 6.3-11 7.2-1.3 11.7 2.9 11.7 10.9zm-9.2-6.5c-2.3 0.6-2.8 1.7-2.8 6.5 0 5.3 0.1 5.4 2.9 5.4 3.2 0 4.1-1.4 4.1-6.5 0-2.4-0.6-3.8-1.9-4.5-1.1-0.5-2.1-1-2.3-0.9zm-30.5-4.1c1.8 0 2.9 1.1 4.7 5 1.3 2.7 2.6 5 2.9 5 0.3 0 1.7-2.1 3.1-4.8 1.9-3.6 3.1-4.8 5.3-5l2.7-0.3v21.1h-2.6c-2.5 0-2.6-0.1-2.2-6.4 0.1-3.5 0-6.3-0.3-6.1-0.3 0.2-1.4 2.2-2.4 4.5-2.3 5-4.2 4.9-7.2-0.5l-2.2-4 0.2 6c0.2 5.5 0 6-2 6.3-2.3 0.3-2.3 0.2-2.3-10.2 0-10.4 0-10.6 2.3-10.6zm42.6 0h6.6c5.2 0 6.9 0.4 8.5 2 2.3 2.3 2.6 6.8 0.6 9.5-1.2 1.7-1.2 2.3 0 4.7 2 3.8 1.8 4.8-1 4.8-1.7 0-3-1-4.5-3.5-2.5-4.4-3.9-4.4-4.3-0.3-0.2 2.8-0.7 3.3-2.8 3.3-2.5 0-2.5-0.1-2.8-10.3zm8.6 5c-1.8 0-2.5 0.5-2.5 2 0 1.5 0.7 2 2.5 2 1.8 0 2.5-0.5 2.5-2 0-1.5-0.7-2-2.5-2zm19-5c8.4 0 8.5 0 8.5 2.5 0 2.1-0.5 2.5-3 2.5h-3v8c0 7.9 0 8-2.5 8-2.5 0-2.5-0.1-2.5-8v-8h-3c-2.5 0-3-0.4-3-2.5 0-2.5 0.1-2.5 8.5-2.5zm16.9 0.2c2.6 0.3 3.1 1 6.2 9.7 1.9 5.1 3.4 9.7 3.4 10.2 0 1.8-4.9 0.9-6-1.1-0.7-1.3-2.1-2-4-2-1.9 0-3.3 0.7-4 2-0.6 1.2-2.1 2-3.5 2h-2.4l3.7-10.5c3.6-10.3 3.8-10.6 6.6-10.3zm0.7 7.8c-0.7-2.5-0.7-2.5-1.9 0.9-1.5 4.3-1.6 4.1 0.8 4.1 1.1 0 2-0.6 1.9-1.3-0.1-0.6-0.4-2.3-0.8-3.7zm11.9-8h6.3c4.8 0 6.8 0.4 7.9 1.7 2.5 3 2.9 5.3 1.2 8.8-1.4 3-1.4 3.6 0 6.4 2.1 4 2.1 4.1-1.2 4.1-2.2 0-3.2-0.7-4.5-3.5-0.9-1.9-2.3-3.5-3.2-3.5-1 0-1.5 1-1.5 3.5 0 3.1-0.3 3.5-2.5 3.5h-2.5zm7.8 5.2c-2.3-0.3-2.8 0.1-2.8 1.8 0 1.7 0.5 2.1 2.8 1.8 1.6-0.2 2.7-0.9 2.7-1.8 0-0.9-1.1-1.6-2.7-1.8zm12.2-5.2h5v21h-5z"/>
	</g>
</svg>